<?xml version="1.0" encoding="UTF-8"?>
<!DOCTYPE svg PUBLIC "-//W3C//DTD SVG 1.1//EN" "http://www.w3.org/Graphics/SVG/1.1/DTD/svg11.dtd">
<svg xmlns="http://www.w3.org/2000/svg" version="1.1" width="560px" height="445px" style="shape-rendering:geometricPrecision; text-rendering:geometricPrecision; image-rendering:optimizeQuality; fill-rule:evenodd; clip-rule:evenodd" xmlns:xlink="http://www.w3.org/1999/xlink">
<g><path style="opacity:0.99" fill="#5c86fe" d="M 307.5,60.5 C 307.5,61.5 307.5,62.5 307.5,63.5C 308.675,63.719 309.675,63.3857 310.5,62.5C 322.113,36.8166 341.78,21.65 369.5,17C 370.545,15.474 372.045,14.6406 374,14.5C 385.335,16.7894 396.835,17.1227 408.5,15.5C 411.216,15.9606 413.882,16.6273 416.5,17.5C 419.783,16.673 423.116,16.3396 426.5,16.5C 426.5,17.5 426.5,18.5 426.5,19.5C 434.207,20.0834 441.707,21.4167 449,23.5C 451.935,21.8084 455.102,21.1417 458.5,21.5C 458.5,22.8333 458.5,24.1667 458.5,25.5C 462.941,23.8926 467.608,23.2259 472.5,23.5C 472.33,24.8221 472.663,25.9887 473.5,27C 481.188,27.8315 488.855,27.6648 496.5,26.5C 497.641,25.5745 497.641,24.7412 496.5,24C 499.916,23.1067 503.083,23.6067 506,25.5C 512.579,22.9354 519.079,20.2687 525.5,17.5C 526.573,18.2506 526.74,19.2506 526,20.5C 516.606,39.6094 504.939,57.2761 491,73.5C 490.421,74.9285 490.588,76.2618 491.5,77.5C 479.155,93.5116 464.821,107.512 448.5,119.5C 447.25,119.423 446.417,118.756 446,117.5C 426.284,133.065 404.284,143.399 380,148.5C 374.322,146.345 368.489,146.012 362.5,147.5C 363.55,148.429 363.55,149.095 362.5,149.5C 343.877,150.415 327.211,145.249 312.5,134C 310.21,132.223 308.543,130.056 307.5,127.5C 306.599,123.759 307.932,121.759 311.5,121.5C 318.923,103.059 330.59,87.726 346.5,75.5C 364.507,63.6994 384.174,55.8661 405.5,52C 404.833,51.6667 404.167,51.3333 403.5,51C 406.916,50.1067 410.083,50.6067 413,52.5C 419.045,49.6219 418.545,48.2885 411.5,48.5C 408.269,47.2185 404.936,47.2185 401.5,48.5C 401.5,47.5 401.5,46.5 401.5,45.5C 399.05,45.298 396.717,45.6314 394.5,46.5C 359.43,50.4709 331.596,66.8043 311,95.5C 308.884,100.193 306.218,104.526 303,108.5C 300.982,106.478 300.148,103.978 300.5,101C 302.765,82.1474 296.765,66.1474 282.5,53C 275.111,46.757 267.111,41.5904 258.5,37.5C 256.099,36.4608 253.765,35.1274 251.5,33.5C 248.347,31.6711 247.347,32.3378 248.5,35.5C 252.134,36.6502 255.467,38.3169 258.5,40.5C 271.219,49.3941 281.386,60.7274 289,74.5C 290.872,79.5007 292.372,84.6674 293.5,90C 292.706,96.8739 292.373,103.707 292.5,110.5C 290.292,112.102 287.959,113.436 285.5,114.5C 261.233,110.741 245.4,97.0746 238,73.5C 237,71.8333 235.667,70.5 234,69.5C 233.708,67.6739 233.875,65.8405 234.5,64C 232.799,54.8924 231.466,45.7257 230.5,36.5C 229.522,36.0233 228.689,35.3567 228,34.5C 226.586,26.4054 227.586,18.7387 231,11.5C 231.176,8.11818 231.676,4.78485 232.5,1.5C 235.777,6.44737 239.444,11.114 243.5,15.5C 259.933,24.187 276.267,33.0203 292.5,42C 298.882,47.1985 303.882,53.3652 307.5,60.5 Z M 411.5,48.5 C 408.031,49.7 404.698,49.7 401.5,48.5C 404.936,47.2185 408.269,47.2185 411.5,48.5 Z M 282.5,57.5 C 283.906,57.9731 284.573,58.9731 284.5,60.5C 283.094,60.0269 282.427,59.0269 282.5,57.5 Z M 284.5,60.5 C 285.289,60.7828 285.956,61.2828 286.5,62C 285.184,62.5281 284.517,62.0281 284.5,60.5 Z M 286.5,63.5 C 289.016,64.6004 290.016,66.2671 289.5,68.5C 288.048,67.0603 287.048,65.3936 286.5,63.5 Z M 292.5,72.5 C 290.668,71.8595 290.335,70.8595 291.5,69.5C 292.386,70.325 292.719,71.325 292.5,72.5 Z M 292.5,72.5 C 294.862,74.919 295.862,77.919 295.5,81.5C 294.079,78.7062 293.079,75.7062 292.5,72.5 Z M 295.5,81.5 C 296.222,81.9175 296.722,82.5842 297,83.5C 297.498,86.4816 297.665,89.4816 297.5,92.5C 296.778,92.0825 296.278,91.4158 296,90.5C 295.502,87.5184 295.335,84.5184 295.5,81.5 Z"/></g>
<g><path style="opacity:0.181" fill="#658dfe" d="M 529.5,19.5 C 528.596,18.791 528.263,17.791 528.5,16.5C 527.209,16.2627 526.209,16.596 525.5,17.5C 519.079,20.2687 512.579,22.9354 506,25.5C 503.083,23.6067 499.916,23.1067 496.5,24C 497.641,24.7412 497.641,25.5745 496.5,26.5C 488.855,27.6648 481.188,27.8315 473.5,27C 472.663,25.9887 472.33,24.8221 472.5,23.5C 467.608,23.2259 462.941,23.8926 458.5,25.5C 458.5,24.1667 458.5,22.8333 458.5,21.5C 455.102,21.1417 451.935,21.8084 449,23.5C 441.707,21.4167 434.207,20.0834 426.5,19.5C 426.5,18.5 426.5,17.5 426.5,16.5C 423.116,16.3396 419.783,16.673 416.5,17.5C 413.882,16.6273 411.216,15.9606 408.5,15.5C 396.835,17.1227 385.335,16.7894 374,14.5C 372.045,14.6406 370.545,15.474 369.5,17C 341.78,21.65 322.113,36.8166 310.5,62.5C 309.675,63.3857 308.675,63.719 307.5,63.5C 307.5,62.5 307.5,61.5 307.5,60.5C 308.434,59.4324 308.768,58.099 308.5,56.5C 321.245,33.2442 340.578,19.0775 366.5,14C 371.018,13.9354 375.351,13.2687 379.5,12C 387.167,11.3333 394.833,11.3333 402.5,12C 429.713,16.2881 456.879,20.4548 484,24.5C 498.891,22.9636 513.225,19.297 527,13.5C 530.939,13.1043 532.272,14.7709 531,18.5C 530.617,19.056 530.117,19.3893 529.5,19.5 Z"/></g>
<g><path style="opacity:0.157" fill="#6089fe" d="M 525.5,17.5 C 526.209,16.596 527.209,16.2627 528.5,16.5C 528.263,17.791 528.596,18.791 529.5,19.5C 523.773,32.0081 517.106,44.0081 509.5,55.5C 503.825,63.1677 497.825,70.501 491.5,77.5C 490.588,76.2618 490.421,74.9285 491,73.5C 504.939,57.2761 516.606,39.6094 526,20.5C 526.74,19.2506 526.573,18.2506 525.5,17.5 Z"/></g>
<g><path style="opacity:0.098" fill="#75bcf7" d="M 192.5,44.5 C 192.5,46.8333 192.5,49.1667 192.5,51.5C 191.5,51.5 190.5,51.5 189.5,51.5C 189.483,49.4352 189.15,47.4352 188.5,45.5C 189.568,44.5655 190.901,44.2322 192.5,44.5 Z"/></g>
<g><path style="opacity:0.031" fill="#72b0f9" d="M 192.5,44.5 C 194.722,44.5587 195.722,45.7253 195.5,48C 195.722,50.2747 194.722,51.4413 192.5,51.5C 192.5,49.1667 192.5,46.8333 192.5,44.5 Z"/></g>
<g><path style="opacity:0.203" fill="#658dfe" d="M 401.5,48.5 C 404.698,49.7 408.031,49.7 411.5,48.5C 418.545,48.2885 419.045,49.6219 413,52.5C 410.083,50.6067 406.916,50.1067 403.5,51C 404.167,51.3333 404.833,51.6667 405.5,52C 384.174,55.8661 364.507,63.6994 346.5,75.5C 330.59,87.726 318.923,103.059 311.5,121.5C 307.932,121.759 306.599,123.759 307.5,127.5C 306.378,125.712 306.211,123.712 307,121.5C 325.405,80.8905 356.572,57.0571 400.5,50C 398.866,49.5065 397.199,49.3398 395.5,49.5C 395.443,48.391 395.11,47.391 394.5,46.5C 396.717,45.6314 399.05,45.298 401.5,45.5C 401.5,46.5 401.5,47.5 401.5,48.5 Z"/></g>
<g><path style="opacity:0.687" fill="#5581ff" d="M 442.5,44.5 C 447.482,43.3167 450.482,45.1501 451.5,50C 455.358,50.0791 459.024,50.7458 462.5,52C 455.629,52.7783 448.795,52.6116 442,51.5C 440.743,51.1501 440.409,50.4835 441,49.5C 442.205,48.9288 443.372,48.2621 444.5,47.5C 443.388,46.7348 442.721,45.7348 442.5,44.5 Z"/></g>
<g><path style="opacity:0.146" fill="#628bfe" d="M 228.5,-0.5 C 230.833,-0.5 233.167,-0.5 235.5,-0.5C 239.085,5.08969 243.419,10.0897 248.5,14.5C 259.349,21.2296 270.682,27.0629 282.5,32C 293.945,37.2803 302.612,45.447 308.5,56.5C 308.768,58.099 308.434,59.4324 307.5,60.5C 303.882,53.3652 298.882,47.1985 292.5,42C 276.267,33.0203 259.933,24.187 243.5,15.5C 239.444,11.114 235.777,6.44737 232.5,1.5C 231.676,4.78485 231.176,8.11818 231,11.5C 227.586,18.7387 226.586,26.4054 228,34.5C 228.689,35.3567 229.522,36.0233 230.5,36.5C 231.466,45.7257 232.799,54.8924 234.5,64C 233.875,65.8405 233.708,67.6739 234,69.5C 235.667,70.5 237,71.8333 238,73.5C 245.4,97.0746 261.233,110.741 285.5,114.5C 287.959,113.436 290.292,112.102 292.5,110.5C 292.373,103.707 292.706,96.8739 293.5,90C 292.372,84.6674 290.872,79.5007 289,74.5C 281.386,60.7274 271.219,49.3941 258.5,40.5C 259.376,40.6309 260.043,40.2975 260.5,39.5C 259.757,38.8182 259.091,38.1515 258.5,37.5C 267.111,41.5904 275.111,46.757 282.5,53C 296.765,66.1474 302.765,82.1474 300.5,101C 300.148,103.978 300.982,106.478 303,108.5C 306.218,104.526 308.884,100.193 311,95.5C 331.596,66.8043 359.43,50.4709 394.5,46.5C 395.11,47.391 395.443,48.391 395.5,49.5C 353.952,55.8585 323.285,77.6918 303.5,115C 301.299,115.825 299.466,115.325 298,113.5C 298.141,109.161 298.641,104.828 299.5,100.5C 299.713,97.4733 299.047,94.8066 297.5,92.5C 297.399,99.9105 296.565,107.244 295,114.5C 292.521,116.917 289.521,117.917 286,117.5C 275.322,116.517 265.489,113.017 256.5,107C 241.627,93.2971 232.627,76.4638 229.5,56.5C 225.956,37.5472 225.623,18.5472 228.5,-0.5 Z M 282.5,57.5 C 283.906,57.9731 284.573,58.9731 284.5,60.5C 283.094,60.0269 282.427,59.0269 282.5,57.5 Z M 284.5,60.5 C 284.517,62.0281 285.184,62.5281 286.5,62C 285.956,61.2828 285.289,60.7828 284.5,60.5 Z M 286.5,63.5 C 287.048,65.3936 288.048,67.0603 289.5,68.5C 290.016,66.2671 289.016,64.6004 286.5,63.5 Z M 292.5,72.5 C 292.719,71.325 292.386,70.325 291.5,69.5C 290.335,70.8595 290.668,71.8595 292.5,72.5 Z M 292.5,72.5 C 294.862,74.919 295.862,77.919 295.5,81.5C 294.079,78.7062 293.079,75.7062 292.5,72.5 Z M 295.5,81.5 C 296.222,81.9175 296.722,82.5842 297,83.5C 297.498,86.4816 297.665,89.4816 297.5,92.5C 296.778,92.0825 296.278,91.4158 296,90.5C 295.502,87.5184 295.335,84.5184 295.5,81.5 Z"/></g>
<g><path style="opacity:0.512" fill="#6c92fe" d="M 258.5,37.5 C 259.091,38.1515 259.757,38.8182 260.5,39.5C 260.043,40.2975 259.376,40.6309 258.5,40.5C 255.467,38.3169 252.134,36.6502 248.5,35.5C 247.347,32.3378 248.347,31.6711 251.5,33.5C 253.765,35.1274 256.099,36.4608 258.5,37.5 Z"/></g>
<g><path style="opacity:0.167" fill="#67dfef" d="M 186.5,46.5 C 186.298,48.9496 186.631,51.283 187.5,53.5C 184.62,53.9402 181.954,54.9402 179.5,56.5C 179.5,55.1667 179.5,53.8333 179.5,52.5C 180.675,52.719 181.675,52.3857 182.5,51.5C 178.893,50.5108 175.226,50.1774 171.5,50.5C 176.101,48.098 181.101,46.7647 186.5,46.5 Z"/></g>
<g><path style="opacity:0.057" fill="#74d5f2" d="M 188.5,45.5 C 189.15,47.4352 189.483,49.4352 189.5,51.5C 189.5,52.8333 188.833,53.5 187.5,53.5C 186.631,51.283 186.298,48.9496 186.5,46.5C 187.167,46.1667 187.833,45.8333 188.5,45.5 Z"/></g>
<g><path style="opacity:0.977" fill="#3cd8ea" d="M 350.5,189.5 C 362.039,189.542 373.373,188.042 384.5,185C 385.056,184.617 385.389,184.117 385.5,183.5C 390.793,182.345 396.127,181.178 401.5,180C 404.019,179.414 406.019,178.247 407.5,176.5C 412.244,176.457 416.244,174.79 419.5,171.5C 425.819,169.4 431.819,166.733 437.5,163.5C 440.269,162.563 442.936,161.396 445.5,160C 446.381,159.292 447.047,158.458 447.5,157.5C 447.5,156.833 447.833,156.5 448.5,156.5C 452.008,155.337 455.008,153.337 457.5,150.5C 457.833,151.167 458.167,151.833 458.5,152.5C 455.818,156.178 453.151,159.845 450.5,163.5C 448.407,164.045 446.407,164.878 444.5,166C 438.12,170.483 431.787,175.15 425.5,180C 421.514,181.561 417.514,183.061 413.5,184.5C 411.012,187.567 408.012,189.901 404.5,191.5C 398.299,194.28 391.966,196.78 385.5,199C 336.084,211.933 285.75,214.933 234.5,208C 229.19,206.727 223.856,205.561 218.5,204.5C 218.5,203.5 218.5,202.5 218.5,201.5C 189.154,195.705 161.487,184.372 135.5,167.5C 134.124,166.158 132.791,164.825 131.5,163.5C 130.167,162.167 128.833,162.167 127.5,163.5C 137.743,214.36 161.743,257.526 199.5,293C 214.982,306.546 231.982,317.546 250.5,326C 294.547,341.028 336.713,336.861 377,313.5C 382.523,309.503 387.69,305.17 392.5,300.5C 401.809,292.355 410.309,283.355 418,273.5C 418.52,275.289 418.187,276.956 417,278.5C 409.746,285.907 403.913,294.241 399.5,303.5C 362.305,342.735 316.639,359.569 262.5,354C 227.388,348.386 197.388,332.886 172.5,307.5C 166.862,306.67 161.196,306.17 155.5,306C 154.756,304.961 153.756,304.461 152.5,304.5C 152.611,303.883 152.944,303.383 153.5,303C 151.374,302.102 149.374,300.935 147.5,299.5C 146.522,299.977 145.689,300.643 145,301.5C 102.74,289.566 70.7395,264.566 49,226.5C 44.0432,215.921 40.7099,204.921 39,193.5C 38.3333,192.833 37.6667,192.167 37,191.5C 34.8338,176.517 38.5005,163.183 48,151.5C 51.6595,148.348 55.4928,145.348 59.5,142.5C 60.3857,141.675 60.719,140.675 60.5,139.5C 65.2404,139.128 69.5737,137.628 73.5,135C 75.4406,134.257 77.2739,134.424 79,135.5C 79.8333,134.667 80.6667,133.833 81.5,133C 84.0432,132.86 86.3766,132.194 88.5,131C 93.4884,130.913 98.4884,131.08 103.5,131.5C 101.646,124.297 101.146,116.964 102,109.5C 103.461,105.951 104.627,102.284 105.5,98.5C 106.675,98.719 107.675,98.3857 108.5,97.5C 113.013,91.1704 118.013,85.1704 123.5,79.5C 129.516,76.3879 134.85,72.3879 139.5,67.5C 147.203,63.6485 154.87,59.8152 162.5,56C 165.738,54.6323 169.072,54.2989 172.5,55C 155.238,62.9367 141.404,74.77 131,90.5C 130.278,94.6719 128.778,98.5052 126.5,102C 128.767,105.927 128.767,109.927 126.5,114C 129.973,122.29 133.64,130.457 137.5,138.5C 138.552,138.351 139.552,138.517 140.5,139C 145.261,145.473 150.928,151.14 157.5,156C 180.042,170.397 204.209,180.897 230,187.5C 231.126,186.056 232.626,185.39 234.5,185.5C 238.343,187.002 242.343,187.669 246.5,187.5C 246.5,188.5 246.5,189.5 246.5,190.5C 250.81,189.92 255.143,189.586 259.5,189.5C 259.5,190.5 259.5,191.5 259.5,192.5C 266.753,190.765 273.753,191.432 280.5,194.5C 295.826,193.22 311.159,193.22 326.5,194.5C 330.95,193.89 335.283,192.89 339.5,191.5C 343.188,191.947 346.854,192.114 350.5,192C 351.598,191.23 351.598,190.397 350.5,189.5 Z M 160.5,294.5 C 155.902,294.727 151.568,293.894 147.5,292C 111.009,276.841 83.8427,251.674 66,216.5C 64.1533,211.279 62.32,206.279 60.5,201.5C 59.8333,194.833 59.1667,188.167 58.5,181.5C 64.2497,158.571 78.7497,145.904 102,143.5C 106.801,199.857 126.301,250.19 160.5,294.5 Z"/></g>
<g><path style="opacity:0.08" fill="#5fa4f9" d="M 474.5,136.5 C 474.5,134.833 474.5,133.167 474.5,131.5C 470.875,132.583 467.875,134.583 465.5,137.5C 467.142,131.845 470.808,128.845 476.5,128.5C 476.663,130.857 476.497,133.19 476,135.5C 475.617,136.056 475.117,136.389 474.5,136.5 Z"/></g>
<g><path style="opacity:0.239" fill="#618dfe" d="M 448.5,119.5 C 445.905,121.816 443.239,124.149 440.5,126.5C 434.522,129.489 428.855,132.989 423.5,137C 416.617,139.557 409.951,142.557 403.5,146C 391.089,148.513 378.589,150.346 366,151.5C 364.319,151.392 363.152,150.725 362.5,149.5C 363.55,149.095 363.55,148.429 362.5,147.5C 368.489,146.012 374.322,146.345 380,148.5C 404.284,143.399 426.284,133.065 446,117.5C 446.417,118.756 447.25,119.423 448.5,119.5 Z"/></g>
<g><path style="opacity:0.114" fill="#58aff4" d="M 474.5,136.5 C 474.672,137.492 474.338,138.158 473.5,138.5C 472.833,137.167 472.167,135.833 471.5,134.5C 469.359,136.122 467.692,138.122 466.5,140.5C 463.605,141.399 460.938,142.733 458.5,144.5C 460.5,141.833 462.833,139.5 465.5,137.5C 467.875,134.583 470.875,132.583 474.5,131.5C 474.5,133.167 474.5,134.833 474.5,136.5 Z"/></g>
<g><path style="opacity:0.345" fill="#54b9f3" d="M 466.5,140.5 C 466.167,141.167 465.833,141.833 465.5,142.5C 461.632,144.029 458.299,146.363 455.5,149.5C 454.391,149.557 453.391,149.89 452.5,150.5C 453.833,147.833 455.833,145.833 458.5,144.5C 460.938,142.733 463.605,141.399 466.5,140.5 Z"/></g>
<g><path style="opacity:0.867" fill="#41c6eb" d="M 471.5,134.5 C 471.086,137.743 470.086,140.743 468.5,143.5C 467.833,144.167 467.167,144.833 466.5,145.5C 466.737,144.209 466.404,143.209 465.5,142.5C 465.833,141.833 466.167,141.167 466.5,140.5C 467.692,138.122 469.359,136.122 471.5,134.5 Z"/></g>
<g><path style="opacity:0.105" fill="#51b6f0" d="M 471.5,134.5 C 472.167,135.833 472.833,137.167 473.5,138.5C 472.504,142.501 470.504,145.834 467.5,148.5C 468.038,146.883 468.371,145.216 468.5,143.5C 470.086,140.743 471.086,137.743 471.5,134.5 Z"/></g>
<g><path style="opacity:0.963" fill="#3fd1ec" d="M 465.5,142.5 C 466.404,143.209 466.737,144.209 466.5,145.5C 466.108,147.179 465.608,148.846 465,150.5C 459.972,154.699 455.139,159.032 450.5,163.5C 453.151,159.845 455.818,156.178 458.5,152.5C 458.167,151.833 457.833,151.167 457.5,150.5C 455.008,153.337 452.008,155.337 448.5,156.5C 451.027,154.395 453.36,152.061 455.5,149.5C 458.299,146.363 461.632,144.029 465.5,142.5 Z"/></g>
<g><path style="opacity:0.063" fill="#4ec2f0" d="M 468.5,143.5 C 468.371,145.216 468.038,146.883 467.5,148.5C 462.442,155.731 456.442,162.231 449.5,168C 448.255,168.791 446.922,169.291 445.5,169.5C 447.114,167.544 448.781,165.544 450.5,163.5C 455.139,159.032 459.972,154.699 465,150.5C 465.608,148.846 466.108,147.179 466.5,145.5C 467.167,144.833 467.833,144.167 468.5,143.5 Z"/></g>
<g><path style="opacity:0.031" fill="#5bb5f5" d="M 452.5,150.5 C 449.293,154.377 445.293,157.044 440.5,158.5C 443.803,154.844 447.803,152.178 452.5,150.5 Z"/></g>
<g><path style="opacity:0.675" fill="#43ceec" d="M 447.5,157.5 C 447.047,158.458 446.381,159.292 445.5,160C 442.936,161.396 440.269,162.563 437.5,163.5C 440.242,160.579 443.575,158.579 447.5,157.5 Z"/></g>
<g><path style="opacity:0.027" fill="#5ab8f3" d="M 439.5,159.5 C 434.57,163.799 428.903,166.799 422.5,168.5C 427.899,165.127 433.565,162.127 439.5,159.5 Z"/></g>
<g><path style="opacity:0.11" fill="#55c1f1" d="M 455.5,149.5 C 453.36,152.061 451.027,154.395 448.5,156.5C 447.833,156.5 447.5,156.833 447.5,157.5C 443.575,158.579 440.242,160.579 437.5,163.5C 431.819,166.733 425.819,169.4 419.5,171.5C 415.261,172.796 411.261,174.462 407.5,176.5C 403.207,177.656 398.874,178.656 394.5,179.5C 394.611,178.883 394.944,178.383 395.5,178C 404.655,175.116 413.655,171.949 422.5,168.5C 428.903,166.799 434.57,163.799 439.5,159.5C 440.167,159.5 440.5,159.167 440.5,158.5C 445.293,157.044 449.293,154.377 452.5,150.5C 453.391,149.89 454.391,149.557 455.5,149.5 Z"/></g>
<g><path style="opacity:0.643" fill="#49ccec" d="M 419.5,171.5 C 416.244,174.79 412.244,176.457 407.5,176.5C 411.261,174.462 415.261,172.796 419.5,171.5 Z"/></g>
<g><path style="opacity:0.041" fill="#4fcbef" d="M 445.5,169.5 C 440.451,174.078 434.785,177.745 428.5,180.5C 432.763,177.019 437.097,173.519 441.5,170C 442.793,169.51 444.127,169.343 445.5,169.5 Z"/></g>
<g><path style="opacity:0.155" fill="#49d1ec" d="M 450.5,163.5 C 448.781,165.544 447.114,167.544 445.5,169.5C 444.127,169.343 442.793,169.51 441.5,170C 437.097,173.519 432.763,177.019 428.5,180.5C 421.019,185.326 413.019,188.992 404.5,191.5C 408.012,189.901 411.012,187.567 413.5,184.5C 417.514,183.061 421.514,181.561 425.5,180C 431.787,175.15 438.12,170.483 444.5,166C 446.407,164.878 448.407,164.045 450.5,163.5 Z"/></g>
<g><path style="opacity:0.433" fill="#4dcfef" d="M 407.5,176.5 C 406.019,178.247 404.019,179.414 401.5,180C 396.127,181.178 390.793,182.345 385.5,183.5C 388.608,182.447 391.608,181.114 394.5,179.5C 398.874,178.656 403.207,177.656 407.5,176.5 Z"/></g>
<g><path style="opacity:0.043" fill="#56c9f0" d="M 394.5,179.5 C 391.608,181.114 388.608,182.447 385.5,183.5C 379.9,184.686 374.233,185.353 368.5,185.5C 376.938,183.086 385.605,181.086 394.5,179.5 Z"/></g>
<g><path style="opacity:0.066" fill="#4fd5ec" d="M 385.5,183.5 C 385.389,184.117 385.056,184.617 384.5,185C 373.373,188.042 362.039,189.542 350.5,189.5C 348.833,189.5 347.167,189.5 345.5,189.5C 353.121,188.479 360.788,187.146 368.5,185.5C 374.233,185.353 379.9,184.686 385.5,183.5 Z"/></g>
<g><path style="opacity:0.326" fill="#46daeb" d="M 171.5,50.5 C 175.226,50.1774 178.893,50.5108 182.5,51.5C 181.675,52.3857 180.675,52.719 179.5,52.5C 179.5,53.8333 179.5,55.1667 179.5,56.5C 167.17,61.5063 155.836,68.3396 145.5,77C 132.696,88.7354 128.196,102.902 132,119.5C 139.812,135.312 151.145,147.979 166,157.5C 202.766,178.565 242.266,189.731 284.5,191C 304.925,191.814 325.258,191.314 345.5,189.5C 347.167,189.5 348.833,189.5 350.5,189.5C 351.598,190.397 351.598,191.23 350.5,192C 346.854,192.114 343.188,191.947 339.5,191.5C 335.283,192.89 330.95,193.89 326.5,194.5C 311.159,193.22 295.826,193.22 280.5,194.5C 273.753,191.432 266.753,190.765 259.5,192.5C 259.5,191.5 259.5,190.5 259.5,189.5C 255.143,189.586 250.81,189.92 246.5,190.5C 246.5,189.5 246.5,188.5 246.5,187.5C 242.343,187.669 238.343,187.002 234.5,185.5C 232.626,185.39 231.126,186.056 230,187.5C 204.209,180.897 180.042,170.397 157.5,156C 150.928,151.14 145.261,145.473 140.5,139C 139.552,138.517 138.552,138.351 137.5,138.5C 133.64,130.457 129.973,122.29 126.5,114C 128.767,109.927 128.767,105.927 126.5,102C 128.778,98.5052 130.278,94.6719 131,90.5C 141.404,74.77 155.238,62.9367 172.5,55C 169.072,54.2989 165.738,54.6323 162.5,56C 154.87,59.8152 147.203,63.6485 139.5,67.5C 134.85,72.3879 129.516,76.3879 123.5,79.5C 118.013,85.1704 113.013,91.1704 108.5,97.5C 107.675,98.3857 106.675,98.719 105.5,98.5C 104.627,102.284 103.461,105.951 102,109.5C 101.146,116.964 101.646,124.297 103.5,131.5C 98.4884,131.08 93.4884,130.913 88.5,131C 86.3766,132.194 84.0432,132.86 81.5,133C 80.6667,133.833 79.8333,134.667 79,135.5C 77.2739,134.424 75.4406,134.257 73.5,135C 69.5737,137.628 65.2404,139.128 60.5,139.5C 60.719,140.675 60.3857,141.675 59.5,142.5C 55.4928,145.348 51.6595,148.348 48,151.5C 38.5005,163.183 34.8338,176.517 37,191.5C 37.6667,192.167 38.3333,192.833 39,193.5C 40.7099,204.921 44.0432,215.921 49,226.5C 70.7395,264.566 102.74,289.566 145,301.5C 145.689,300.643 146.522,299.977 147.5,299.5C 149.374,300.935 151.374,302.102 153.5,303C 152.944,303.383 152.611,303.883 152.5,304.5C 140.256,303.55 128.589,300.383 117.5,295C 79.5219,277.054 53.1886,248.387 38.5,209C 26.1431,172.759 37.1431,147.093 71.5,132C 81.1381,129.511 90.8048,127.678 100.5,126.5C 98.9673,107.439 105.301,91.4392 119.5,78.5C 135.086,65.9675 152.419,56.6341 171.5,50.5 Z"/></g>
<g><path style="opacity:0.362" fill="#44daeb" d="M 60.5,201.5 C 62.32,206.279 64.1533,211.279 66,216.5C 83.8427,251.674 111.009,276.841 147.5,292C 151.568,293.894 155.902,294.727 160.5,294.5C 126.301,250.19 106.801,199.857 102,143.5C 78.7497,145.904 64.2497,158.571 58.5,181.5C 56.8148,180.816 55.8148,179.483 55.5,177.5C 59.4498,161.887 68.7831,150.887 83.5,144.5C 90.4404,141.786 97.4404,139.453 104.5,137.5C 108.181,189.335 124.848,237.335 154.5,281.5C 157.814,285.648 161.314,289.648 165,293.5C 165.483,294.448 165.649,295.448 165.5,296.5C 166.833,296.5 168.167,296.5 169.5,296.5C 169.762,297.978 169.429,299.311 168.5,300.5C 143.678,295.957 121.678,285.457 102.5,269C 81.3525,251.484 66.3525,229.817 57.5,204C 58.7205,203.754 59.7205,202.92 60.5,201.5 Z"/></g>
<g><path style="opacity:0.112" fill="#9febf4" d="M 438.5,247.5 C 437.839,246.282 437.172,244.949 436.5,243.5C 434.786,245.35 432.786,246.684 430.5,247.5C 432.924,240.904 436.757,235.238 442,230.5C 443.074,231.618 444.24,232.618 445.5,233.5C 443.614,238.478 441.281,243.144 438.5,247.5 Z"/></g>
<g><path style="opacity:0.096" fill="#88e7f2" d="M 438.5,247.5 C 435.787,253.896 432.454,259.896 428.5,265.5C 428.338,263.473 428.505,261.473 429,259.5C 431.064,257.757 431.564,255.757 430.5,253.5C 428.432,256.547 426.432,259.547 424.5,262.5C 423.205,263.488 421.872,264.488 420.5,265.5C 423.348,259.129 426.681,253.129 430.5,247.5C 432.786,246.684 434.786,245.35 436.5,243.5C 437.172,244.949 437.839,246.282 438.5,247.5 Z"/></g>
<g><path style="opacity:0.079" fill="#71e2ef" d="M 428.5,265.5 C 427.126,269.609 424.792,272.943 421.5,275.5C 422.42,271.065 424.086,266.898 426.5,263C 425.906,262.536 425.239,262.369 424.5,262.5C 426.432,259.547 428.432,256.547 430.5,253.5C 431.564,255.757 431.064,257.757 429,259.5C 428.505,261.473 428.338,263.473 428.5,265.5 Z"/></g>
<g><path style="opacity:0.24" fill="#45daeb" d="M 218.5,204.5 C 193.805,199.908 170.471,191.741 148.5,180C 143.516,177.169 138.849,173.835 134.5,170C 133.5,169.333 132.5,169.333 131.5,170C 144.028,218.359 168.694,259.692 205.5,294C 226.291,311.563 249.958,323.563 276.5,330C 299.909,331.976 322.909,330.309 345.5,325C 358.114,320.524 369.781,314.191 380.5,306C 381.448,305.517 382.448,305.351 383.5,305.5C 386.366,303.568 389.366,301.901 392.5,300.5C 387.69,305.17 382.523,309.503 377,313.5C 336.713,336.861 294.547,341.028 250.5,326C 231.982,317.546 214.982,306.546 199.5,293C 161.743,257.526 137.743,214.36 127.5,163.5C 128.833,162.167 130.167,162.167 131.5,163.5C 132.791,164.825 134.124,166.158 135.5,167.5C 161.487,184.372 189.154,195.705 218.5,201.5C 218.5,202.5 218.5,203.5 218.5,204.5 Z"/></g>
<g><path style="opacity:0.278" fill="#60dfee" d="M 424.5,262.5 C 425.239,262.369 425.906,262.536 426.5,263C 424.086,266.898 422.42,271.065 421.5,275.5C 415.693,285.98 408.36,295.314 399.5,303.5C 403.913,294.241 409.746,285.907 417,278.5C 418.187,276.956 418.52,275.289 418,273.5C 410.309,283.355 401.809,292.355 392.5,300.5C 389.366,301.901 386.366,303.568 383.5,305.5C 391.707,298.429 399.54,290.762 407,282.5C 411.406,276.612 415.906,270.946 420.5,265.5C 421.872,264.488 423.205,263.488 424.5,262.5 Z"/></g>
<g><path style="opacity:0.142" fill="#7095fe" d="M 96.5,384.5 C 95.1667,384.5 93.8333,384.5 92.5,384.5C 91.5,384.5 90.5,384.5 89.5,384.5C 88.1667,384.5 86.8333,384.5 85.5,384.5C 85.5,387.167 85.5,389.833 85.5,392.5C 82.5182,384.012 85.5182,380.512 94.5,382C 95.3805,382.708 96.0472,383.542 96.5,384.5 Z"/></g>
<g><path style="opacity:0.17" fill="#7196fe" d="M 111.5,382.5 C 108.57,383.299 105.57,383.632 102.5,383.5C 102.171,398.676 102.504,413.676 103.5,428.5C 103.433,429.959 103.766,431.292 104.5,432.5C 102.983,432.489 101.816,431.823 101,430.5C 100.333,414.833 100.333,399.167 101,383.5C 104.311,378.723 107.811,378.389 111.5,382.5 Z"/></g>
<g><path style="opacity:0.046" fill="#87a5fb" d="M 45.5,386.5 C 41.9981,383.88 38.4981,383.88 35,386.5C 34.5003,394.159 34.3336,401.826 34.5,409.5C 33.596,408.791 33.2627,407.791 33.5,406.5C 32.8261,399.543 32.9927,392.543 34,385.5C 37.1831,383.477 40.6831,382.977 44.5,384C 45.2524,384.671 45.5858,385.504 45.5,386.5 Z"/></g>
<g><path style="opacity:0.3" fill="#6f93fb" d="M 45.5,386.5 C 45.5,387.167 45.8333,387.5 46.5,387.5C 46.0923,390.599 47.259,392.933 50,394.5C 50.4828,395.448 50.6495,396.448 50.5,397.5C 47.3916,394.672 44.725,391.338 42.5,387.5C 40.3052,386.231 38.1385,386.231 36,387.5C 35.2894,396.194 35.4561,404.861 36.5,413.5C 36.1667,413.5 35.8333,413.5 35.5,413.5C 35.1667,412.167 34.8333,410.833 34.5,409.5C 34.3336,401.826 34.5003,394.159 35,386.5C 38.4981,383.88 41.9981,383.88 45.5,386.5 Z"/></g>
<g><path style="opacity:0.179" fill="#7296fe" d="M 80.5,387.5 C 77.9658,385.408 75.2992,385.074 72.5,386.5C 68.7786,390.888 65.4453,395.555 62.5,400.5C 64.0451,395.079 66.3784,390.079 69.5,385.5C 70.5145,384.235 72.0145,383.569 74,383.5C 77.5749,382.77 79.7415,384.103 80.5,387.5 Z"/></g>
<g><path style="opacity:0.931" fill="#5581fe" d="M 72.5,386.5 C 74.1439,386.286 75.6439,386.62 77,387.5C 77.6667,401.167 77.6667,414.833 77,428.5C 75.6439,429.38 74.1439,429.714 72.5,429.5C 71.8826,429.389 71.3826,429.056 71,428.5C 70.5007,423.511 70.3341,418.511 70.5,413.5C 71.3227,410.023 71.8227,406.356 72,402.5C 72.3333,410.5 72.6667,418.5 73,426.5C 73.3076,427.308 73.8076,427.975 74.5,428.5C 75.2621,427.372 75.9288,426.205 76.5,425C 75.6585,412.966 75.3252,400.799 75.5,388.5C 73.8212,388.715 72.8212,388.048 72.5,386.5 Z"/></g>
<g><path style="opacity:0.161" fill="#648cfe" d="M 72.5,386.5 C 75.2992,385.074 77.9658,385.408 80.5,387.5C 80.8293,402.01 80.4959,416.343 79.5,430.5C 78.0328,430.894 76.5328,431.227 75,431.5C 73.6244,431.316 72.7911,430.649 72.5,429.5C 74.1439,429.714 75.6439,429.38 77,428.5C 77.6667,414.833 77.6667,401.167 77,387.5C 75.6439,386.62 74.1439,386.286 72.5,386.5 Z"/></g>
<g><path style="opacity:0.976" fill="#43d8eb" d="M 360.5,397.5 C 355.539,393.743 349.872,392.577 343.5,394C 341.452,395.956 339.786,398.123 338.5,400.5C 336.756,406.395 337.256,412.062 340,417.5C 343.718,422.193 347.885,423.193 352.5,420.5C 356.262,418.533 360.262,418.2 364.5,419.5C 365.696,421.145 366.696,422.811 367.5,424.5C 366.957,427.754 365.29,430.254 362.5,432C 357.177,432.499 351.844,432.666 346.5,432.5C 342.035,430.098 337.702,427.432 333.5,424.5C 330.199,421.722 328.533,418.055 328.5,413.5C 327.751,406.779 328.918,400.446 332,394.5C 336.373,390.924 340.54,387.257 344.5,383.5C 351.891,382.131 358.891,383.131 365.5,386.5C 368.278,392.161 366.611,395.828 360.5,397.5 Z"/></g>
<g><path style="opacity:0.981" fill="#5c86fe" d="M 50.5,397.5 C 51.6169,401.726 53.7836,405.393 57,408.5C 59.103,405.941 60.9363,403.274 62.5,400.5C 65.4453,395.555 68.7786,390.888 72.5,386.5C 72.8212,388.048 73.8212,388.715 75.5,388.5C 75.3252,400.799 75.6585,412.966 76.5,425C 75.9288,426.205 75.2621,427.372 74.5,428.5C 73.8076,427.975 73.3076,427.308 73,426.5C 72.6667,418.5 72.3333,410.5 72,402.5C 71.8227,406.356 71.3227,410.023 70.5,413.5C 70.8256,409.116 70.4922,404.783 69.5,400.5C 67.4239,405.657 64.5906,410.323 61,414.5C 59.2658,416.451 57.0991,417.451 54.5,417.5C 51.405,412.301 48.0717,407.301 44.5,402.5C 43.8595,400.668 42.8595,400.335 41.5,401.5C 42.8067,410.833 42.8067,420.166 41.5,429.5C 40.1667,429.5 38.8333,429.5 37.5,429.5C 36.5119,424.36 36.1786,419.026 36.5,413.5C 35.4561,404.861 35.2894,396.194 36,387.5C 38.1385,386.231 40.3052,386.231 42.5,387.5C 44.725,391.338 47.3916,394.672 50.5,397.5 Z M 51.5,418.5 C 49.5,418.167 47.5,417.833 45.5,417.5C 45.3359,414.813 45.5026,412.146 46,409.5C 46.8722,413.181 48.7055,416.181 51.5,418.5 Z"/></g>
<g><path style="opacity:0.033" fill="#70aff9" d="M 311.5,394.5 C 306.819,393.238 302.152,393.238 297.5,394.5C 297.611,393.883 297.944,393.383 298.5,393C 302.5,392.333 306.5,392.333 310.5,393C 311.056,393.383 311.389,393.883 311.5,394.5 Z"/></g>
<g><path style="opacity:0.237" fill="#7399fe" d="M 279.5,395.5 C 276.015,394.41 272.681,394.41 269.5,395.5C 267.661,396.752 265.828,396.752 264,395.5C 262.915,397.657 261.749,397.824 260.5,396C 257.518,395.502 254.518,395.335 251.5,395.5C 252.923,394.551 254.423,393.551 256,392.5C 257.721,393.895 259.721,394.561 262,394.5C 266.721,392.777 271.554,392.277 276.5,393C 277.571,393.852 278.571,394.685 279.5,395.5 Z"/></g>
<g><path style="opacity:0.193" fill="#6b91fe" d="M 269.5,395.5 C 272.681,394.41 276.015,394.41 279.5,395.5C 283.886,399.065 285.552,403.731 284.5,409.5C 283.833,409.167 283.167,408.833 282.5,408.5C 281.681,404.542 280.181,400.875 278,397.5C 275.379,396.009 272.545,395.342 269.5,395.5 Z"/></g>
<g><path style="opacity:0.081" fill="#50d4ed" d="M 360.5,397.5 C 353.784,395.604 347.451,396.271 341.5,399.5C 340.609,400.11 339.609,400.443 338.5,400.5C 339.786,398.123 341.452,395.956 343.5,394C 349.872,392.577 355.539,393.743 360.5,397.5 Z"/></g>
<g><path style="opacity:0.067" fill="#7498fe" d="M 235.5,393.5 C 229.806,392.672 224.806,394.006 220.5,397.5C 219.5,398.167 218.5,398.833 217.5,399.5C 215.947,401.385 213.947,402.385 211.5,402.5C 210.988,406.358 210.322,410.191 209.5,414C 210.025,417.541 210.692,421.041 211.5,424.5C 207.043,415.57 207.71,406.903 213.5,398.5C 220.078,393.044 227.412,391.377 235.5,393.5 Z"/></g>
<g><path style="opacity:0.974" fill="#5b86fe" d="M 217.5,399.5 C 218.5,398.833 219.5,398.167 220.5,397.5C 224.966,395.86 229.633,395.36 234.5,396C 247.182,404.45 248.849,414.783 239.5,427C 224.465,434.132 215.131,429.799 211.5,414C 212.655,410.613 213.655,407.113 214.5,403.5C 216.288,402.717 217.288,401.384 217.5,399.5 Z M 235.5,410.5 C 235.065,419.55 230.731,422.216 222.5,418.5C 220.675,413.802 221.675,409.802 225.5,406.5C 227.098,405.515 228.765,405.349 230.5,406C 232.062,407.634 233.729,409.134 235.5,410.5 Z"/></g>
<g><path style="opacity:0.97" fill="#5b86fe" d="M 319.5,404.5 C 319.995,406.452 320.328,408.452 320.5,410.5C 320.351,412.32 319.684,413.82 318.5,415C 311.174,415.5 303.841,415.666 296.5,415.5C 296.343,416.873 296.51,418.207 297,419.5C 299.838,421.85 303.005,423.517 306.5,424.5C 307.833,424.333 309.167,424.167 310.5,424C 311.056,423.617 311.389,423.117 311.5,422.5C 311.833,422.5 312.167,422.5 312.5,422.5C 314.5,422.5 316.5,422.5 318.5,422.5C 318.88,424.698 318.213,426.365 316.5,427.5C 311.077,429.508 305.41,430.008 299.5,429C 296.279,427.896 293.612,426.063 291.5,423.5C 286.87,412.46 289.203,403.46 298.5,396.5C 307.364,394.437 314.364,397.104 319.5,404.5 Z M 307.5,405.5 C 307.611,406.117 307.944,406.617 308.5,407C 305.961,407.796 303.628,407.629 301.5,406.5C 303.379,405.659 305.379,405.325 307.5,405.5 Z"/></g>
<g><path style="opacity:0.427" fill="#59cef0" d="M 344.5,383.5 C 340.54,387.257 336.373,390.924 332,394.5C 328.918,400.446 327.751,406.779 328.5,413.5C 327.523,410.713 327.19,407.713 327.5,404.5C 328.26,399.653 329.594,394.986 331.5,390.5C 335.108,386.862 339.442,384.529 344.5,383.5 Z"/></g>
<g><path style="opacity:0.973" fill="#3ed8ea" d="M 532.5,407.5 C 533.555,410.073 533.722,412.739 533,415.5C 532.082,417.376 530.582,418.376 528.5,418.5C 526.167,418.5 523.833,418.5 521.5,418.5C 518.167,418.5 514.833,418.5 511.5,418.5C 509.55,416.535 507.216,415.201 504.5,414.5C 505.585,418.954 508.251,422.121 512.5,424C 517.839,423.836 523.172,423.336 528.5,422.5C 528.703,424.39 528.037,425.89 526.5,427C 523.967,428.691 521.3,430.191 518.5,431.5C 502.13,430.417 496.13,421.75 500.5,405.5C 503.251,399.407 507.917,396.074 514.5,395.5C 520.546,395.311 524.712,397.978 527,403.5C 528.992,404.665 530.825,405.998 532.5,407.5 Z M 512.5,405.5 C 514.655,405.372 516.655,405.872 518.5,407C 515.833,407.667 513.167,407.667 510.5,407C 511.416,406.722 512.082,406.222 512.5,405.5 Z"/></g>
<g><path style="opacity:0.221" fill="#6f98fd" d="M 298.5,396.5 C 289.203,403.46 286.87,412.46 291.5,423.5C 292.038,425.117 292.371,426.784 292.5,428.5C 289.936,427.253 288.103,425.253 287,422.5C 285.216,416.519 285.216,410.519 287,404.5C 288.103,401.747 289.936,399.747 292.5,398.5C 294.297,397.27 296.297,396.604 298.5,396.5 Z"/></g>
<g><path style="opacity:0.251" fill="#6d93fe" d="M 206.5,430.5 C 207.341,428.621 207.675,426.621 207.5,424.5C 204.552,424.777 201.719,424.444 199,423.5C 199.508,420.45 200.008,417.284 200.5,414C 200.619,410.262 199.953,406.762 198.5,403.5C 201.5,403.5 204.5,403.5 207.5,403.5C 208.03,396.853 205.197,394.52 199,396.5C 198.802,394.618 198.302,392.952 197.5,391.5C 195.544,389.852 193.211,389.185 190.5,389.5C 190.5,391.833 190.5,394.167 190.5,396.5C 188.5,396.5 186.5,396.5 184.5,396.5C 184.34,398.199 184.506,399.866 185,401.5C 186.948,402.109 188.782,402.776 190.5,403.5C 190.334,411.507 190.5,419.507 191,427.5C 192.73,429.402 194.563,431.069 196.5,432.5C 193.465,432.479 191.132,431.146 189.5,428.5C 188.833,421.5 188.167,414.5 187.5,407.5C 185.742,406.872 184.242,405.872 183,404.5C 181.34,407.336 178.84,408.836 175.5,409C 180.755,411.263 183.089,415.263 182.5,421C 181.626,429.806 176.626,433.973 167.5,433.5C 161.127,433.629 155.96,431.296 152,426.5C 151.503,423.854 151.336,421.187 151.5,418.5C 153.703,418.396 155.703,417.73 157.5,416.5C 156.147,415.474 155.147,414.141 154.5,412.5C 154.334,408.486 154.501,404.486 155,400.5C 158.342,396.484 162.675,394.151 168,393.5C 170.968,395.078 174.135,395.745 177.5,395.5C 179.113,395.944 180.28,396.944 181,398.5C 182.318,395.059 184.818,393.725 188.5,394.5C 188.5,392.167 188.5,389.833 188.5,387.5C 190.722,387.822 192.556,387.155 194,385.5C 198.858,386.555 201.358,389.555 201.5,394.5C 206.331,393.667 208.664,395.667 208.5,400.5C 208.536,405.13 206.203,407.464 201.5,407.5C 201.5,411.5 201.5,415.5 201.5,419.5C 206.203,419.536 208.536,421.87 208.5,426.5C 208.415,428.333 207.748,429.666 206.5,430.5 Z M 167.5,405.5 C 169.308,405.491 170.975,405.991 172.5,407C 171.667,407.167 170.833,407.333 170,407.5C 168.624,407.316 167.791,406.649 167.5,405.5 Z M 157.5,416.5 C 159.553,416.402 161.22,417.069 162.5,418.5C 160.302,418.88 158.635,418.213 157.5,416.5 Z M 162.5,418.5 C 165.254,418.784 167.92,419.451 170.5,420.5C 167.135,422.168 164.468,421.502 162.5,418.5 Z"/></g>
<g><path style="opacity:0.967" fill="#5c86fe" d="M 165.5,395.5 C 170.296,396.486 174.796,398.153 179,400.5C 179.49,401.793 179.657,403.127 179.5,404.5C 174.989,404.735 170.989,403.401 167.5,400.5C 162.416,402.026 161.416,404.859 164.5,409C 172.714,409.568 178.381,413.568 181.5,421C 178.679,427.041 173.846,429.875 167,429.5C 162.888,429.444 159.055,428.444 155.5,426.5C 154.534,424.604 154.201,422.604 154.5,420.5C 157.961,419.889 160.628,421.056 162.5,424C 165.833,424.667 169.167,424.667 172.5,424C 174.527,422.604 174.86,420.938 173.5,419C 170.021,416.211 166.021,414.878 161.5,415C 159.91,413.954 158.41,412.787 157,411.5C 155.882,406.564 156.715,402.064 159.5,398C 162.051,397.998 164.051,397.164 165.5,395.5 Z"/></g>
<g><path style="opacity:0.984" fill="#5a85fe" d="M 197.5,391.5 C 197.5,393.5 197.5,395.5 197.5,397.5C 200.167,397.5 202.833,397.5 205.5,397.5C 205.5,398.833 205.5,400.167 205.5,401.5C 202.833,401.5 200.167,401.5 197.5,401.5C 197.334,409.174 197.5,416.841 198,424.5C 200.473,425.12 202.973,425.786 205.5,426.5C 200.953,430.454 196.453,430.454 192,426.5C 191.829,418.656 191.329,410.989 190.5,403.5C 188.782,402.776 186.948,402.109 185,401.5C 184.506,399.866 184.34,398.199 184.5,396.5C 186.5,396.5 188.5,396.5 190.5,396.5C 190.5,394.167 190.5,391.833 190.5,389.5C 193.211,389.185 195.544,389.852 197.5,391.5 Z"/></g>
<g><path style="opacity:0.969" fill="#5b85fe" d="M 269.5,395.5 C 272.545,395.342 275.379,396.009 278,397.5C 280.181,400.875 281.681,404.542 282.5,408.5C 282.666,414.509 282.499,420.509 282,426.5C 280.713,429.145 278.547,430.145 275.5,429.5C 276.134,421.097 275.467,413.097 273.5,405.5C 273.5,405.167 273.5,404.833 273.5,404.5C 273.389,403.883 273.056,403.383 272.5,403C 268.909,402.211 265.409,402.378 262,403.5C 261.138,405.087 260.471,406.754 260,408.5C 259.667,414.833 259.333,421.167 259,427.5C 257,430.167 255,430.167 253,427.5C 252.5,417.506 252.334,407.506 252.5,397.5C 254.833,397.5 257.167,397.5 259.5,397.5C 259.281,398.675 259.614,399.675 260.5,400.5C 263.512,398.548 266.512,396.882 269.5,395.5 Z"/></g>
<g><path style="opacity:0.276" fill="#689efb" d="M 311.5,394.5 C 316.658,396.148 320.491,399.481 323,404.5C 323.812,408.689 323.645,412.689 322.5,416.5C 322.823,412.774 322.489,409.107 321.5,405.5C 320.817,405.137 320.15,404.804 319.5,404.5C 314.364,397.104 307.364,394.437 298.5,396.5C 296.297,396.604 294.297,397.27 292.5,398.5C 293.265,396.071 294.931,394.738 297.5,394.5C 302.152,393.238 306.819,393.238 311.5,394.5 Z"/></g>
<g><path style="opacity:0.124" fill="#7599fe" d="M 177.5,395.5 C 174.135,395.745 170.968,395.078 168,393.5C 162.675,394.151 158.342,396.484 155,400.5C 154.501,404.486 154.334,408.486 154.5,412.5C 153.857,410.924 152.857,409.59 151.5,408.5C 151.634,406.708 151.301,405.042 150.5,403.5C 152.649,400.798 154.983,398.132 157.5,395.5C 164.343,391.59 171.01,391.59 177.5,395.5 Z"/></g>
<g><path style="opacity:0.353" fill="#799afa" d="M 69.5,385.5 C 66.3784,390.079 64.0451,395.079 62.5,400.5C 60.9363,403.274 59.103,405.941 57,408.5C 53.7836,405.393 51.6169,401.726 50.5,397.5C 50.6495,396.448 50.4828,395.448 50,394.5C 47.259,392.933 46.0923,390.599 46.5,387.5C 50.0267,392.708 53.5267,398.041 57,403.5C 60.5429,396.961 64.7096,390.961 69.5,385.5 Z"/></g>
<g><path style="opacity:0.084" fill="#7598fe" d="M 144.5,395.5 C 140.836,395.64 137.336,394.973 134,393.5C 130.486,395.616 126.653,397.116 122.5,398C 120.654,400.015 118.987,402.181 117.5,404.5C 116.504,410.798 116.17,417.132 116.5,423.5C 116.098,420.523 115.098,417.857 113.5,415.5C 113.5,414.833 113.5,414.167 113.5,413.5C 114.298,406.115 117.632,399.948 123.5,395C 130.748,391.629 137.748,391.796 144.5,395.5 Z"/></g>
<g><path style="opacity:0.278" fill="#678efe" d="M 251.5,395.5 C 254.518,395.335 257.518,395.502 260.5,396C 261.749,397.824 262.915,397.657 264,395.5C 265.828,396.752 267.661,396.752 269.5,395.5C 266.512,396.882 263.512,398.548 260.5,400.5C 259.614,399.675 259.281,398.675 259.5,397.5C 257.167,397.5 254.833,397.5 252.5,397.5C 252.334,407.506 252.5,417.506 253,427.5C 255,430.167 257,430.167 259,427.5C 259.333,421.167 259.667,414.833 260,408.5C 260.471,406.754 261.138,405.087 262,403.5C 265.409,402.378 268.909,402.211 272.5,403C 273.056,403.383 273.389,403.883 273.5,404.5C 269.833,404.5 266.167,404.5 262.5,404.5C 261.786,413.495 261.119,422.495 260.5,431.5C 257.435,432.818 254.269,432.818 251,431.5C 250.174,419.326 250.34,407.326 251.5,395.5 Z"/></g>
<g><path style="opacity:0.249" fill="#6e93fe" d="M 273.5,404.5 C 273.5,404.833 273.5,405.167 273.5,405.5C 273.721,413.73 273.721,422.063 273.5,430.5C 272.985,422.197 271.985,413.863 270.5,405.5C 267.956,405.104 265.789,405.771 264,407.5C 263.667,414.5 263.333,421.5 263,428.5C 262.148,429.571 261.315,430.571 260.5,431.5C 261.119,422.495 261.786,413.495 262.5,404.5C 266.167,404.5 269.833,404.5 273.5,404.5 Z"/></g>
<g><path style="opacity:0.017" fill="#66c3f4" d="M 331.5,390.5 C 329.594,394.986 328.26,399.653 327.5,404.5C 326.523,407.287 326.19,410.287 326.5,413.5C 324.71,405.121 326.376,397.454 331.5,390.5 Z"/></g>
<g><path style="opacity:0.171" fill="#658dfe" d="M 89.5,384.5 C 87.8516,386.456 87.1849,388.789 87.5,391.5C 94.4485,392.574 96.1151,390.241 92.5,384.5C 93.8333,384.5 95.1667,384.5 96.5,384.5C 97.2591,388.843 97.2591,393.176 96.5,397.5C 96.6665,407.839 96.4998,418.172 96,428.5C 92.7209,432.403 89.3876,432.403 86,428.5C 85.5002,417.839 85.3335,407.172 85.5,396.5C 86.8333,395.167 86.8333,393.833 85.5,392.5C 85.5,389.833 85.5,387.167 85.5,384.5C 86.8333,384.5 88.1667,384.5 89.5,384.5 Z"/></g>
<g><path style="opacity:0.891" fill="#5882ff" d="M 89.5,384.5 C 90.5,384.5 91.5,384.5 92.5,384.5C 96.1151,390.241 94.4485,392.574 87.5,391.5C 87.1849,388.789 87.8516,386.456 89.5,384.5 Z"/></g>
<g><path style="opacity:0.299" fill="#6a90fe" d="M 235.5,393.5 C 241.45,395.953 245.616,400.286 248,406.5C 249.918,428.459 240.084,436.959 218.5,432C 215.594,429.931 213.261,427.431 211.5,424.5C 210.692,421.041 210.025,417.541 209.5,414C 210.322,410.191 210.988,406.358 211.5,402.5C 213.947,402.385 215.947,401.385 217.5,399.5C 217.288,401.384 216.288,402.717 214.5,403.5C 213.655,407.113 212.655,410.613 211.5,414C 215.131,429.799 224.465,434.132 239.5,427C 248.849,414.783 247.182,404.45 234.5,396C 229.633,395.36 224.966,395.86 220.5,397.5C 224.806,394.006 229.806,392.672 235.5,393.5 Z M 235.5,410.5 C 235.065,419.55 230.731,422.216 222.5,418.5C 220.675,413.802 221.675,409.802 225.5,406.5C 227.098,405.515 228.765,405.349 230.5,406C 232.062,407.634 233.729,409.134 235.5,410.5 Z"/></g>
<g><path style="opacity:0.527" fill="#6d92fb" d="M 44.5,402.5 C 43.507,410.984 43.1736,419.651 43.5,428.5C 42.8333,428.833 42.1667,429.167 41.5,429.5C 42.8067,420.166 42.8067,410.833 41.5,401.5C 42.8595,400.335 43.8595,400.668 44.5,402.5 Z"/></g>
<g><path style="opacity:0.265" fill="#6394fc" d="M 300.5,402.5 C 307.357,400.678 311.691,403.012 313.5,409.5C 307.833,409.5 302.167,409.5 296.5,409.5C 296.998,406.674 298.331,404.34 300.5,402.5 Z M 307.5,405.5 C 307.611,406.117 307.944,406.617 308.5,407C 305.961,407.796 303.628,407.629 301.5,406.5C 303.379,405.659 305.379,405.325 307.5,405.5 Z"/></g>
<g><path style="opacity:0.121" fill="#69a2fa" d="M 307.5,405.5 C 309.09,405.628 310.423,406.295 311.5,407.5C 307.5,408.833 303.5,408.833 299.5,407.5C 299.957,406.702 300.624,406.369 301.5,406.5C 303.628,407.629 305.961,407.796 308.5,407C 307.944,406.617 307.611,406.117 307.5,405.5 Z"/></g>
<g><path style="opacity:0.442" fill="#678efe" d="M 111.5,382.5 C 112.117,382.611 112.617,382.944 113,383.5C 113.5,393.494 113.666,403.494 113.5,413.5C 113.5,414.167 113.5,414.833 113.5,415.5C 113.827,420.544 113.494,425.544 112.5,430.5C 110.132,432.223 107.466,432.89 104.5,432.5C 103.766,431.292 103.433,429.959 103.5,428.5C 102.504,413.676 102.171,398.676 102.5,383.5C 105.57,383.632 108.57,383.299 111.5,382.5 Z"/></g>
<g><path style="opacity:0.922" fill="#517dff" d="M 110.5,386.5 C 110.5,389.5 110.5,392.5 110.5,395.5C 110.5,405.833 110.5,416.167 110.5,426.5C 110.5,426.833 110.5,427.167 110.5,427.5C 109.17,421.034 108.503,414.201 108.5,407C 108.503,399.799 109.17,392.966 110.5,386.5 Z"/></g>
<g><path style="opacity:0.272" fill="#618aff" d="M 110.5,395.5 C 111.828,400.288 112.495,405.454 112.5,411C 112.495,416.546 111.828,421.712 110.5,426.5C 110.5,416.167 110.5,405.833 110.5,395.5 Z"/></g>
<g><path style="opacity:0.956" fill="#5b86ff" d="M 110.5,386.5 C 109.17,392.966 108.503,399.799 108.5,407C 108.503,414.201 109.17,421.034 110.5,427.5C 108.55,429.753 106.216,430.086 103.5,428.5C 103.5,413.833 103.5,399.167 103.5,384.5C 105.527,384.338 107.527,384.505 109.5,385C 110.056,385.383 110.389,385.883 110.5,386.5 Z"/></g>
<g><path style="opacity:0.158" fill="#6a90fe" d="M 232.5,422.5 C 227.051,425.574 222.551,424.241 219,418.5C 216.712,407.191 221.212,402.025 232.5,403C 235,404.167 236.833,406 238,408.5C 239.226,413.475 238.393,417.975 235.5,422C 234.552,422.483 233.552,422.649 232.5,422.5 Z M 235.5,410.5 C 235.065,419.55 230.731,422.216 222.5,418.5C 220.675,413.802 221.675,409.802 225.5,406.5C 227.098,405.515 228.765,405.349 230.5,406C 232.062,407.634 233.729,409.134 235.5,410.5 Z"/></g>
<g><path style="opacity:0.061" fill="#7598fe" d="M 235.5,410.5 C 237.263,415.112 236.263,419.112 232.5,422.5C 228.225,423.25 224.891,421.917 222.5,418.5C 230.731,422.216 235.065,419.55 235.5,410.5 Z"/></g>
<g><path style="opacity:0.141" fill="#7e9efb" d="M 44.5,402.5 C 48.0717,407.301 51.405,412.301 54.5,417.5C 55.6009,418.598 56.9343,418.765 58.5,418C 60.9957,416.334 63.329,414.5 65.5,412.5C 64.6472,416.02 62.6472,418.687 59.5,420.5C 57.5,420.5 55.5,420.5 53.5,420.5C 53.1583,419.662 52.4916,419.328 51.5,419.5C 51.5,419.167 51.5,418.833 51.5,418.5C 48.7055,416.181 46.8722,413.181 46,409.5C 45.5026,412.146 45.3359,414.813 45.5,417.5C 45.756,421.269 45.4227,424.936 44.5,428.5C 44.1667,428.5 43.8333,428.5 43.5,428.5C 43.1736,419.651 43.507,410.984 44.5,402.5 Z M 51.5,418.5 C 49.5,418.167 47.5,417.833 45.5,417.5C 45.3359,414.813 45.5026,412.146 46,409.5C 46.8722,413.181 48.7055,416.181 51.5,418.5 Z"/></g>
<g><path style="opacity:0.05" fill="#7397fe" d="M 85.5,396.5 C 85.3335,407.172 85.5002,417.839 86,428.5C 89.3876,432.403 92.7209,432.403 96,428.5C 96.4998,418.172 96.6665,407.839 96.5,397.5C 97.6588,407.992 97.8255,418.659 97,429.5C 93.5108,433.009 89.6775,433.343 85.5,430.5C 84.176,419.007 84.176,407.674 85.5,396.5 Z"/></g>
<g><path style="opacity:0.99" fill="#5984ff" d="M 89.5,397.5 C 91.1667,397.5 92.8333,397.5 94.5,397.5C 94.6665,407.506 94.4998,417.506 94,427.5C 91.7067,430.134 89.54,430.134 87.5,427.5C 89.4743,417.889 90.141,407.889 89.5,397.5 Z"/></g>
<g><path style="opacity:0.941" fill="#537fff" d="M 89.5,397.5 C 90.141,407.889 89.4743,417.889 87.5,427.5C 86.859,417.111 87.5257,407.111 89.5,397.5 Z"/></g>
<g><path style="opacity:0.076" fill="#aabef7" d="M 33.5,406.5 C 33.2627,407.791 33.596,408.791 34.5,409.5C 34.8333,410.833 35.1667,412.167 35.5,413.5C 35.5,414.167 35.5,414.833 35.5,415.5C 34.1667,415.167 32.8333,414.833 31.5,414.5C 31.2938,411.505 31.9605,408.838 33.5,406.5 Z"/></g>
<g><path style="opacity:0.184" fill="#cfd8f4" d="M 31.5,414.5 C 32.8333,414.833 34.1667,415.167 35.5,415.5C 35.9449,420.101 35.2783,424.435 33.5,428.5C 30.5655,429.301 27.8988,430.634 25.5,432.5C 27.1449,428.855 29.8116,426.188 33.5,424.5C 34.4731,422.052 34.8064,419.385 34.5,416.5C 30.1667,416.5 25.8333,416.5 21.5,416.5C 21.6107,415.883 21.944,415.383 22.5,415C 25.4816,414.502 28.4816,414.335 31.5,414.5 Z"/></g>
<g><path style="opacity:0.108" fill="#7698fa" d="M 69.5,430.5 C 68.8826,430.389 68.3826,430.056 68,429.5C 67.8276,423.319 67.3276,417.319 66.5,411.5C 67.0447,409.407 67.878,407.407 69,405.5C 69.4997,413.827 69.6664,422.16 69.5,430.5 Z"/></g>
<g><path style="opacity:0.28" fill="#698ffb" d="M 70.5,413.5 C 70.3341,418.511 70.5007,423.511 71,428.5C 71.3826,429.056 71.8826,429.389 72.5,429.5C 72.7911,430.649 73.6244,431.316 75,431.5C 76.5328,431.227 78.0328,430.894 79.5,430.5C 79.3893,431.117 79.056,431.617 78.5,432C 77,432.167 75.5,432.333 74,432.5C 72.0145,432.431 70.5145,431.765 69.5,430.5C 69.6664,422.16 69.4997,413.827 69,405.5C 67.878,407.407 67.0447,409.407 66.5,411.5C 66.5,412.167 66.1667,412.5 65.5,412.5C 63.329,414.5 60.9957,416.334 58.5,418C 56.9343,418.765 55.6009,418.598 54.5,417.5C 57.0991,417.451 59.2658,416.451 61,414.5C 64.5906,410.323 67.4239,405.657 69.5,400.5C 70.4922,404.783 70.8256,409.116 70.5,413.5 Z"/></g>
<g><path style="opacity:0.321" fill="#6293fc" d="M 319.5,404.5 C 320.15,404.804 320.817,405.137 321.5,405.5C 322.489,409.107 322.823,412.774 322.5,416.5C 322.158,417.338 321.492,417.672 320.5,417.5C 313.468,417.17 306.468,417.503 299.5,418.5C 301.358,420.697 303.692,422.031 306.5,422.5C 308.167,422.5 309.833,422.5 311.5,422.5C 311.389,423.117 311.056,423.617 310.5,424C 309.167,424.167 307.833,424.333 306.5,424.5C 303.005,423.517 299.838,421.85 297,419.5C 296.51,418.207 296.343,416.873 296.5,415.5C 303.841,415.666 311.174,415.5 318.5,415C 319.684,413.82 320.351,412.32 320.5,410.5C 320.328,408.452 319.995,406.452 319.5,404.5 Z"/></g>
<g><path style="opacity:0.156" fill="#57cfef" d="M 341.5,399.5 C 338.066,406.622 339.066,412.956 344.5,418.5C 347.021,419.785 349.687,420.452 352.5,420.5C 347.885,423.193 343.718,422.193 340,417.5C 337.256,412.062 336.756,406.395 338.5,400.5C 339.609,400.443 340.609,400.11 341.5,399.5 Z"/></g>
<g><path style="opacity:0.031" fill="#5ec8f2" d="M 327.5,404.5 C 327.19,407.713 327.523,410.713 328.5,413.5C 328.533,418.055 330.199,421.722 333.5,424.5C 333.733,426.062 334.4,427.395 335.5,428.5C 329.727,425.306 326.727,420.306 326.5,413.5C 326.19,410.287 326.523,407.287 327.5,404.5 Z"/></g>
<g><path style="opacity:0.974" fill="#edeef0" d="M 33.5,424.5 C 29.8116,426.188 27.1449,428.855 25.5,432.5C 25.5,432.833 25.5,433.167 25.5,433.5C 24.2502,433.577 23.4169,434.244 23,435.5C 22.502,438.482 22.3354,441.482 22.5,444.5C 17.8333,444.5 13.1667,444.5 8.5,444.5C 7.8753,437.53 9.3753,431.197 13,425.5C 15.8283,423.632 18.3283,421.466 20.5,419C 24.7514,417.805 29.0848,417.305 33.5,417.5C 33.5,419.833 33.5,422.167 33.5,424.5 Z"/></g>
<g><path style="opacity:0.118" fill="#9fb5f7" d="M 45.5,417.5 C 47.5,417.833 49.5,418.167 51.5,418.5C 51.5,418.833 51.5,419.167 51.5,419.5C 51.8417,420.338 52.5084,420.672 53.5,420.5C 55.5,420.5 57.5,420.5 59.5,420.5C 58.0484,421.302 56.3817,421.802 54.5,422C 56.8051,426.119 59.4718,429.953 62.5,433.5C 62.6773,437.234 62.3439,440.901 61.5,444.5C 57.1667,444.5 52.8333,444.5 48.5,444.5C 47.6244,439.986 46.291,435.653 44.5,431.5C 44.5,430.5 44.5,429.5 44.5,428.5C 45.4227,424.936 45.756,421.269 45.5,417.5 Z"/></g>
<g><path style="opacity:0.008" fill="#68a2fa" d="M 320.5,417.5 C 320.5,418.167 320.167,418.5 319.5,418.5C 317.167,418.5 314.833,418.5 312.5,418.5C 308.818,418.335 305.152,418.501 301.5,419C 303.193,419.847 304.86,420.68 306.5,421.5C 306.5,421.833 306.5,422.167 306.5,422.5C 303.692,422.031 301.358,420.697 299.5,418.5C 306.468,417.503 313.468,417.17 320.5,417.5 Z"/></g>
<g><path style="opacity:0.194" fill="#50dcec" d="M 532.5,407.5 C 530.825,405.998 528.992,404.665 527,403.5C 524.712,397.978 520.546,395.311 514.5,395.5C 507.917,396.074 503.251,399.407 500.5,405.5C 496.13,421.75 502.13,430.417 518.5,431.5C 521.3,430.191 523.967,428.691 526.5,427C 528.037,425.89 528.703,424.39 528.5,422.5C 523.172,423.336 517.839,423.836 512.5,424C 508.251,422.121 505.585,418.954 504.5,414.5C 507.216,415.201 509.55,416.535 511.5,418.5C 514.794,422.469 518.127,422.469 521.5,418.5C 523.833,418.5 526.167,418.5 528.5,418.5C 532.977,424.101 531.977,428.601 525.5,432C 519.167,432.667 512.833,432.667 506.5,432C 500.361,428.716 496.361,423.883 494.5,417.5C 496.104,412.899 495.604,408.566 493,404.5C 482.835,392.653 472.835,392.653 463,404.5C 458.103,424.771 465.937,432.771 486.5,428.5C 487.833,427.833 489.167,427.167 490.5,426.5C 491.711,425.28 491.711,424.113 490.5,423C 486.296,422.34 482.296,422.84 478.5,424.5C 473.902,423.7 470.569,421.2 468.5,417C 468.833,416.5 469.167,416 469.5,415.5C 470.795,416.098 472.128,416.598 473.5,417C 479.825,417.5 486.158,417.666 492.5,417.5C 492.389,418.117 492.056,418.617 491.5,419C 495.411,424.249 494.411,428.582 488.5,432C 482.141,432.831 475.807,432.664 469.5,431.5C 466.104,430.237 463.27,428.237 461,425.5C 459.207,419.312 458.04,412.978 457.5,406.5C 455.253,407.374 452.92,407.708 450.5,407.5C 450.666,415.507 450.5,423.507 450,431.5C 446.32,433.053 442.82,432.719 439.5,430.5C 438.503,422.862 438.169,415.196 438.5,407.5C 436.323,407.414 434.323,406.747 432.5,405.5C 430.382,406.946 428.049,407.613 425.5,407.5C 425.83,414.532 425.497,421.532 424.5,428.5C 423.824,429.602 423.158,430.602 422.5,431.5C 421.579,421.873 421.245,412.206 421.5,402.5C 424.518,402.665 427.518,402.498 430.5,402C 431.423,399.959 431.756,397.792 431.5,395.5C 428.603,395.319 425.77,395.652 423,396.5C 421.941,396.37 421.108,395.87 420.5,395C 421.5,393.333 422.5,391.667 423.5,390C 426.758,389.788 429.924,389.288 433,388.5C 433.492,387.451 433.326,386.451 432.5,385.5C 426.453,383.731 420.786,384.397 415.5,387.5C 414.516,390.428 414.183,393.428 414.5,396.5C 409.458,395.505 407.125,397.505 407.5,402.5C 410.119,402.232 412.619,402.565 415,403.5C 414.493,413.229 414.659,422.896 415.5,432.5C 414.504,432.586 413.671,432.252 413,431.5C 412.529,429.754 411.862,428.087 411,426.5C 410.831,420.141 410.331,413.807 409.5,407.5C 405.122,404.445 403.955,400.445 406,395.5C 410.623,394.96 412.956,392.293 413,387.5C 416.223,382.729 420.723,380.062 426.5,379.5C 429.08,380.233 431.58,381.233 434,382.5C 434.273,384.329 435.107,385.829 436.5,387C 435.139,388.584 434.472,390.418 434.5,392.5C 431.428,392.183 428.428,392.516 425.5,393.5C 429.887,395.089 434.22,395.422 438.5,394.5C 439.172,384.996 444.339,379.996 454,379.5C 461.152,380.471 463.486,384.471 461,391.5C 458.2,392.125 455.366,392.792 452.5,393.5C 458.119,393.288 460.953,395.954 461,401.5C 467.937,392.17 476.771,390.003 487.5,395C 491.198,398.245 494.032,402.078 496,406.5C 500.519,395.434 508.686,390.934 520.5,393C 527.265,395.594 531.265,400.427 532.5,407.5 Z M 512.5,405.5 C 512.082,406.222 511.416,406.722 510.5,407C 513.167,407.667 515.833,407.667 518.5,407C 516.655,405.872 514.655,405.372 512.5,405.5 Z M 474.5,405.5 C 476.75,405.181 478.75,405.681 480.5,407C 478.167,407.667 475.833,407.667 473.5,407C 474.056,406.617 474.389,406.117 474.5,405.5 Z M 474.5,419.5 C 477.64,418.359 480.973,418.192 484.5,419C 482.833,419.833 481.167,420.667 479.5,421.5C 477.925,420.544 476.258,419.877 474.5,419.5 Z M 511.5,418.5 C 514.833,418.5 518.167,418.5 521.5,418.5C 518.127,422.469 514.794,422.469 511.5,418.5 Z"/></g>
<g><path style="opacity:0.972" fill="#3ed8ea" d="M 494.5,417.5 C 493.833,417.5 493.167,417.5 492.5,417.5C 486.158,417.666 479.825,417.5 473.5,417C 472.128,416.598 470.795,416.098 469.5,415.5C 469.167,416 468.833,416.5 468.5,417C 470.569,421.2 473.902,423.7 478.5,424.5C 482.296,422.84 486.296,422.34 490.5,423C 491.711,424.113 491.711,425.28 490.5,426.5C 489.167,427.167 487.833,427.833 486.5,428.5C 465.937,432.771 458.103,424.771 463,404.5C 472.835,392.653 482.835,392.653 493,404.5C 495.604,408.566 496.104,412.899 494.5,417.5 Z M 474.5,405.5 C 474.389,406.117 474.056,406.617 473.5,407C 475.833,407.667 478.167,407.667 480.5,407C 478.75,405.681 476.75,405.181 474.5,405.5 Z"/></g>
<g><path style="opacity:0.986" fill="#3ad8ea" d="M 446.5,384.5 C 450.884,384.174 455.217,384.508 459.5,385.5C 460.309,387.071 460.643,388.738 460.5,390.5C 458.738,390.357 457.071,390.691 455.5,391.5C 453.167,388.833 450.833,388.833 448.5,391.5C 447.534,393.396 447.201,395.396 447.5,397.5C 450.5,397.5 453.5,397.5 456.5,397.5C 456.5,399.167 456.5,400.833 456.5,402.5C 453.833,402.5 451.167,402.5 448.5,402.5C 448.5,411.5 448.5,420.5 448.5,429.5C 446.208,429.756 444.041,429.423 442,428.5C 441.5,420.173 441.334,411.84 441.5,403.5C 435.641,404.926 433.641,402.926 435.5,397.5C 437.045,396.548 438.712,396.215 440.5,396.5C 440.916,391.669 442.916,387.669 446.5,384.5 Z"/></g>
<g><path style="opacity:0.99" fill="#3ed8ea" d="M 422.5,431.5 C 420.393,432.468 418.059,432.802 415.5,432.5C 414.659,422.896 414.493,413.229 415,403.5C 412.619,402.565 410.119,402.232 407.5,402.5C 407.125,397.505 409.458,395.505 414.5,396.5C 414.183,393.428 414.516,390.428 415.5,387.5C 420.786,384.397 426.453,383.731 432.5,385.5C 433.326,386.451 433.492,387.451 433,388.5C 429.924,389.288 426.758,389.788 423.5,390C 422.5,391.667 421.5,393.333 420.5,395C 421.108,395.87 421.941,396.37 423,396.5C 425.77,395.652 428.603,395.319 431.5,395.5C 431.756,397.792 431.423,399.959 430.5,402C 427.518,402.498 424.518,402.665 421.5,402.5C 421.245,412.206 421.579,421.873 422.5,431.5 Z"/></g>
<g><path style="opacity:0.044" fill="#7296fe" d="M 151.5,411.5 C 152.514,414.966 151.181,417.466 147.5,419C 148.381,419.708 149.047,420.542 149.5,421.5C 144.97,421.403 140.47,421.736 136,422.5C 132.767,422.3 129.933,421.133 127.5,419C 134.332,417.704 141.332,417.037 148.5,417C 150.569,416.676 150.902,415.842 149.5,414.5C 150.193,413.482 150.859,412.482 151.5,411.5 Z M 129.5,419.5 C 132.976,418.357 136.642,418.19 140.5,419C 138.833,419.833 137.167,420.667 135.5,421.5C 133.55,420.628 131.55,419.961 129.5,419.5 Z"/></g>
<g><path style="opacity:0.016" fill="#d8dff4" d="M 21.5,416.5 C 25.8333,416.5 30.1667,416.5 34.5,416.5C 34.8064,419.385 34.4731,422.052 33.5,424.5C 33.5,422.167 33.5,419.833 33.5,417.5C 29.0848,417.305 24.7514,417.805 20.5,419C 18.3283,421.466 15.8283,423.632 13,425.5C 9.3753,431.197 7.8753,437.53 8.5,444.5C 8.16667,444.5 7.83333,444.5 7.5,444.5C 5.48542,434.885 7.81875,426.552 14.5,419.5C 16.6621,417.98 18.9954,416.98 21.5,416.5 Z"/></g>
<g><path style="opacity:0.219" fill="#698ffe" d="M 144.5,395.5 C 146.945,397.93 148.945,400.596 150.5,403.5C 151.301,405.042 151.634,406.708 151.5,408.5C 151.5,409.5 151.5,410.5 151.5,411.5C 150.859,412.482 150.193,413.482 149.5,414.5C 150.902,415.842 150.569,416.676 148.5,417C 141.332,417.037 134.332,417.704 127.5,419C 129.933,421.133 132.767,422.3 136,422.5C 140.47,421.736 144.97,421.403 149.5,421.5C 150.648,426.439 148.981,429.939 144.5,432C 138.167,432.667 131.833,432.667 125.5,432C 121.637,429.968 118.637,427.134 116.5,423.5C 116.17,417.132 116.504,410.798 117.5,404.5C 118.987,402.181 120.654,400.015 122.5,398C 126.653,397.116 130.486,395.616 134,393.5C 137.336,394.973 140.836,395.64 144.5,395.5 Z M 131.5,405.5 C 133.655,405.372 135.655,405.872 137.5,407C 134.833,407.667 132.167,407.667 129.5,407C 130.416,406.722 131.082,406.222 131.5,405.5 Z"/></g>
<g><path style="opacity:0.976" fill="#5b85fe" d="M 131.5,395.5 C 143.679,396.676 149.346,403.343 148.5,415.5C 140.16,415.334 131.827,415.5 123.5,416C 125.5,419.333 128.167,422 131.5,424C 136.964,424.322 142.297,423.822 147.5,422.5C 147.703,424.39 147.037,425.89 145.5,427C 136.048,432.506 127.548,431.339 120,423.5C 118.193,417.073 118.026,410.573 119.5,404C 121.328,402.337 122.995,400.504 124.5,398.5C 127.238,398.113 129.572,397.113 131.5,395.5 Z M 131.5,405.5 C 131.082,406.222 130.416,406.722 129.5,407C 132.167,407.667 134.833,407.667 137.5,407C 135.655,405.872 133.655,405.372 131.5,405.5 Z"/></g>
<g><path style="opacity:0.215" fill="#6a91fe" d="M 128.5,402.5 C 131.898,402.18 135.232,402.513 138.5,403.5C 140.69,405.007 142.024,407.007 142.5,409.5C 136.833,409.5 131.167,409.5 125.5,409.5C 125.15,406.547 126.15,404.213 128.5,402.5 Z M 131.5,405.5 C 131.082,406.222 130.416,406.722 129.5,407C 132.167,407.667 134.833,407.667 137.5,407C 135.655,405.872 133.655,405.372 131.5,405.5 Z"/></g>
<g><path style="opacity:0.024" fill="#68a8f9" d="M 312.5,418.5 C 314.833,418.5 317.167,418.5 319.5,418.5C 321.5,421.774 321.833,425.108 320.5,428.5C 320.5,426.167 320.5,423.833 320.5,421.5C 317.615,421.194 314.948,421.527 312.5,422.5C 312.167,422.5 311.833,422.5 311.5,422.5C 309.833,422.5 308.167,422.5 306.5,422.5C 306.5,422.167 306.5,421.833 306.5,421.5C 308.574,420.486 310.574,419.486 312.5,418.5 Z"/></g>
<g><path style="opacity:0.2" fill="#648bfe" d="M 197.5,391.5 C 198.302,392.952 198.802,394.618 199,396.5C 205.197,394.52 208.03,396.853 207.5,403.5C 204.5,403.5 201.5,403.5 198.5,403.5C 199.953,406.762 200.619,410.262 200.5,414C 200.008,417.284 199.508,420.45 199,423.5C 201.719,424.444 204.552,424.777 207.5,424.5C 207.675,426.621 207.341,428.621 206.5,430.5C 203.663,432.402 200.329,433.069 196.5,432.5C 194.563,431.069 192.73,429.402 191,427.5C 190.5,419.507 190.334,411.507 190.5,403.5C 191.329,410.989 191.829,418.656 192,426.5C 196.453,430.454 200.953,430.454 205.5,426.5C 202.973,425.786 200.473,425.12 198,424.5C 197.5,416.841 197.334,409.174 197.5,401.5C 200.167,401.5 202.833,401.5 205.5,401.5C 205.5,400.167 205.5,398.833 205.5,397.5C 202.833,397.5 200.167,397.5 197.5,397.5C 197.5,395.5 197.5,393.5 197.5,391.5 Z"/></g>
<g><path style="opacity:0.198" fill="#658cfe" d="M 273.5,405.5 C 275.467,413.097 276.134,421.097 275.5,429.5C 278.547,430.145 280.713,429.145 282,426.5C 282.499,420.509 282.666,414.509 282.5,408.5C 283.167,408.833 283.833,409.167 284.5,409.5C 284.666,416.508 284.5,423.508 284,430.5C 280.466,433.133 276.966,433.133 273.5,430.5C 273.721,422.063 273.721,413.73 273.5,405.5 Z"/></g>
<g><path style="opacity:0.125" fill="#6699fc" d="M 312.5,422.5 C 314.948,421.527 317.615,421.194 320.5,421.5C 320.5,423.833 320.5,426.167 320.5,428.5C 316.448,431.986 311.614,433.319 306,432.5C 302.833,432.167 299.667,431.833 296.5,431.5C 294.816,430.85 293.483,429.85 292.5,428.5C 296.974,430.05 301.64,431.05 306.5,431.5C 310.777,432.227 314.111,430.893 316.5,427.5C 318.213,426.365 318.88,424.698 318.5,422.5C 316.5,422.5 314.5,422.5 312.5,422.5 Z"/></g>
<g><path style="opacity:0.233" fill="#53d0ef" d="M 333.5,424.5 C 337.702,427.432 342.035,430.098 346.5,432.5C 342.065,433.017 338.398,431.684 335.5,428.5C 334.4,427.395 333.733,426.062 333.5,424.5 Z"/></g>
<g><path style="opacity:0.363" fill="#6290fd" d="M 291.5,423.5 C 293.612,426.063 296.279,427.896 299.5,429C 305.41,430.008 311.077,429.508 316.5,427.5C 314.111,430.893 310.777,432.227 306.5,431.5C 301.64,431.05 296.974,430.05 292.5,428.5C 292.371,426.784 292.038,425.117 291.5,423.5 Z"/></g>
<g><path style="opacity:0.382" fill="#4ddbec" d="M 367.5,424.5 C 364.585,416.309 365.085,408.309 369,400.5C 376.836,392.377 386.003,390.544 396.5,395C 405.222,401.806 407.889,410.639 404.5,421.5C 402.752,426.081 399.752,429.581 395.5,432C 388.833,432.667 382.167,432.667 375.5,432C 372.636,429.634 369.969,427.134 367.5,424.5 Z M 383.5,405.5 C 388.628,405.744 391.628,408.411 392.5,413.5C 390.553,420.819 386.553,422.486 380.5,418.5C 379.752,416.668 378.752,415.001 377.5,413.5C 379.034,410.407 381.034,407.74 383.5,405.5 Z"/></g>
<g><path style="opacity:0.969" fill="#40d9ea" d="M 381.5,395.5 C 398.095,395.045 404.762,403.045 401.5,419.5C 400.337,424.028 397.67,427.195 393.5,429C 374.12,432.287 366.12,424.287 369.5,405C 372.263,400.136 376.263,396.969 381.5,395.5 Z M 383.5,405.5 C 381.034,407.74 379.034,410.407 377.5,413.5C 378.752,415.001 379.752,416.668 380.5,418.5C 386.553,422.486 390.553,420.819 392.5,413.5C 391.628,408.411 388.628,405.744 383.5,405.5 Z"/></g>
<g><path style="opacity:0.073" fill="#89a6fb" d="M 35.5,413.5 C 35.8333,413.5 36.1667,413.5 36.5,413.5C 36.1786,419.026 36.5119,424.36 37.5,429.5C 37.62,430.586 38.2867,431.253 39.5,431.5C 40.7133,431.253 41.38,430.586 41.5,429.5C 42.1667,429.167 42.8333,428.833 43.5,428.5C 43.8333,428.5 44.1667,428.5 44.5,428.5C 44.5,429.5 44.5,430.5 44.5,431.5C 41.2569,432.58 37.9236,432.747 34.5,432C 33.6634,430.989 33.33,429.822 33.5,428.5C 35.2783,424.435 35.9449,420.101 35.5,415.5C 35.5,414.833 35.5,414.167 35.5,413.5 Z"/></g>
<g><path style="opacity:0.185" fill="#7598fd" d="M 37.5,429.5 C 38.8333,429.5 40.1667,429.5 41.5,429.5C 41.38,430.586 40.7133,431.253 39.5,431.5C 38.2867,431.253 37.62,430.586 37.5,429.5 Z"/></g>
<g><path style="opacity:0.091" fill="#91acf9" d="M 62.5,433.5 C 64.7383,436.871 66.405,440.537 67.5,444.5C 65.5,444.5 63.5,444.5 61.5,444.5C 62.3439,440.901 62.6773,437.234 62.5,433.5 Z"/></g>
<g><path style="opacity:0.061" fill="#d5ddf4" d="M 25.5,433.5 C 24.7564,437.119 24.423,440.785 24.5,444.5C 23.8333,444.5 23.1667,444.5 22.5,444.5C 22.3354,441.482 22.502,438.482 23,435.5C 23.4169,434.244 24.2502,433.577 25.5,433.5 Z"/></g>
</svg>
